<mxfile host="app.diagrams.net" modified="2020-10-18T03:35:38.379Z" agent="5.0 (Macintosh; Intel Mac OS X 10_15_7) AppleWebKit/537.36 (KHTML, like Gecko) Chrome/86.0.4240.80 Safari/537.36" etag="6ZToqkx_nLoXNJRA3Ifa" version="13.8.0" type="github">
  <diagram id="kgpKYQtTHZ0yAKxKKP6v" name="Page-1">
    <mxGraphModel dx="1298" dy="717" grid="1" gridSize="10" guides="1" tooltips="1" connect="1" arrows="1" fold="1" page="1" pageScale="1" pageWidth="850" pageHeight="1100" math="0" shadow="0">
      <root>
        <mxCell id="0" />
        <mxCell id="1" parent="0" />
        <mxCell id="3nuBFxr9cyL0pnOWT2aG-1" value="Front-end app" style="shape=umlLifeline;perimeter=lifelinePerimeter;container=1;collapsible=0;recursiveResize=0;rounded=0;shadow=0;strokeWidth=1;" parent="1" vertex="1">
          <mxGeometry x="325" y="80" width="100" height="560" as="geometry" />
        </mxCell>
        <mxCell id="3nuBFxr9cyL0pnOWT2aG-2" value="" style="points=[];perimeter=orthogonalPerimeter;rounded=0;shadow=0;strokeWidth=1;" parent="3nuBFxr9cyL0pnOWT2aG-1" vertex="1">
          <mxGeometry x="45" y="65" width="10" height="75" as="geometry" />
        </mxCell>
        <mxCell id="GXygi9bpyvdl9pNc-TTs-19" value="" style="html=1;points=[];perimeter=orthogonalPerimeter;" vertex="1" parent="3nuBFxr9cyL0pnOWT2aG-1">
          <mxGeometry x="45" y="170" width="10" height="150" as="geometry" />
        </mxCell>
        <mxCell id="GXygi9bpyvdl9pNc-TTs-20" value="Open camera and scan the QR Code" style="edgeStyle=orthogonalEdgeStyle;html=1;align=left;spacingLeft=2;endArrow=block;rounded=0;" edge="1" target="GXygi9bpyvdl9pNc-TTs-19" parent="3nuBFxr9cyL0pnOWT2aG-1">
          <mxGeometry relative="1" as="geometry">
            <mxPoint x="55" y="180" as="sourcePoint" />
            <Array as="points">
              <mxPoint x="75" y="180" />
              <mxPoint x="75" y="215" />
            </Array>
          </mxGeometry>
        </mxCell>
        <mxCell id="GXygi9bpyvdl9pNc-TTs-30" value="" style="html=1;points=[];perimeter=orthogonalPerimeter;" vertex="1" parent="3nuBFxr9cyL0pnOWT2aG-1">
          <mxGeometry x="45" y="340" width="10" height="50" as="geometry" />
        </mxCell>
        <mxCell id="GXygi9bpyvdl9pNc-TTs-37" value="" style="html=1;points=[];perimeter=orthogonalPerimeter;" vertex="1" parent="3nuBFxr9cyL0pnOWT2aG-1">
          <mxGeometry x="45" y="440" width="10" height="80" as="geometry" />
        </mxCell>
        <mxCell id="GXygi9bpyvdl9pNc-TTs-38" value="save QR Code in local storage for later" style="edgeStyle=orthogonalEdgeStyle;html=1;align=left;spacingLeft=2;endArrow=block;rounded=0;entryX=1;entryY=0;" edge="1" target="GXygi9bpyvdl9pNc-TTs-37" parent="3nuBFxr9cyL0pnOWT2aG-1">
          <mxGeometry relative="1" as="geometry">
            <mxPoint x="50" y="420" as="sourcePoint" />
            <Array as="points">
              <mxPoint x="75" y="420" />
            </Array>
          </mxGeometry>
        </mxCell>
        <mxCell id="3nuBFxr9cyL0pnOWT2aG-5" value="Backend" style="shape=umlLifeline;perimeter=lifelinePerimeter;container=1;collapsible=0;recursiveResize=0;rounded=0;shadow=0;strokeWidth=1;" parent="1" vertex="1">
          <mxGeometry x="600" y="80" width="100" height="560" as="geometry" />
        </mxCell>
        <mxCell id="3nuBFxr9cyL0pnOWT2aG-6" value="" style="points=[];perimeter=orthogonalPerimeter;rounded=0;shadow=0;strokeWidth=1;" parent="3nuBFxr9cyL0pnOWT2aG-5" vertex="1">
          <mxGeometry x="45" y="65" width="10" height="75" as="geometry" />
        </mxCell>
        <mxCell id="GXygi9bpyvdl9pNc-TTs-25" value="" style="html=1;points=[];perimeter=orthogonalPerimeter;" vertex="1" parent="3nuBFxr9cyL0pnOWT2aG-5">
          <mxGeometry x="45" y="220" width="10" height="100" as="geometry" />
        </mxCell>
        <mxCell id="3nuBFxr9cyL0pnOWT2aG-8" value="call API for previous scanned results " style="verticalAlign=bottom;endArrow=block;entryX=-0.3;entryY=0.067;shadow=0;strokeWidth=1;entryDx=0;entryDy=0;entryPerimeter=0;" parent="1" source="3nuBFxr9cyL0pnOWT2aG-2" target="3nuBFxr9cyL0pnOWT2aG-6" edge="1">
          <mxGeometry relative="1" as="geometry">
            <mxPoint x="300" y="160" as="sourcePoint" />
            <Array as="points">
              <mxPoint x="380" y="150" />
            </Array>
          </mxGeometry>
        </mxCell>
        <mxCell id="3nuBFxr9cyL0pnOWT2aG-9" value="return scanned results" style="verticalAlign=bottom;endArrow=block;shadow=0;strokeWidth=1;" parent="1" source="3nuBFxr9cyL0pnOWT2aG-6" edge="1">
          <mxGeometry relative="1" as="geometry">
            <mxPoint x="265" y="200" as="sourcePoint" />
            <mxPoint x="380" y="200" as="targetPoint" />
          </mxGeometry>
        </mxCell>
        <mxCell id="3nuBFxr9cyL0pnOWT2aG-3" value="invokes app" style="verticalAlign=bottom;startArrow=oval;endArrow=block;startSize=8;shadow=0;strokeWidth=1;" parent="1" target="3nuBFxr9cyL0pnOWT2aG-2" edge="1">
          <mxGeometry relative="1" as="geometry">
            <mxPoint x="90" y="151" as="sourcePoint" />
          </mxGeometry>
        </mxCell>
        <mxCell id="GXygi9bpyvdl9pNc-TTs-13" value="" style="shape=umlLifeline;participant=umlActor;perimeter=lifelinePerimeter;whiteSpace=wrap;html=1;container=1;collapsible=0;recursiveResize=0;verticalAlign=top;spacingTop=36;outlineConnect=0;size=30;" vertex="1" parent="1">
          <mxGeometry x="70" y="80" width="20" height="560" as="geometry" />
        </mxCell>
        <mxCell id="GXygi9bpyvdl9pNc-TTs-14" value="" style="html=1;points=[];perimeter=orthogonalPerimeter;" vertex="1" parent="GXygi9bpyvdl9pNc-TTs-13">
          <mxGeometry x="5" y="60" width="10" height="80" as="geometry" />
        </mxCell>
        <mxCell id="GXygi9bpyvdl9pNc-TTs-16" value="" style="html=1;points=[];perimeter=orthogonalPerimeter;" vertex="1" parent="GXygi9bpyvdl9pNc-TTs-13">
          <mxGeometry x="5" y="170" width="10" height="150" as="geometry" />
        </mxCell>
        <mxCell id="GXygi9bpyvdl9pNc-TTs-41" value="" style="html=1;points=[];perimeter=orthogonalPerimeter;" vertex="1" parent="GXygi9bpyvdl9pNc-TTs-13">
          <mxGeometry x="5" y="440" width="10" height="80" as="geometry" />
        </mxCell>
        <mxCell id="GXygi9bpyvdl9pNc-TTs-15" value="list of scanned results" style="verticalAlign=bottom;endArrow=block;shadow=0;strokeWidth=1;exitX=-0.3;exitY=0.72;exitDx=0;exitDy=0;exitPerimeter=0;" edge="1" parent="1" source="3nuBFxr9cyL0pnOWT2aG-2">
          <mxGeometry relative="1" as="geometry">
            <mxPoint x="360" y="200" as="sourcePoint" />
            <mxPoint x="90" y="200" as="targetPoint" />
          </mxGeometry>
        </mxCell>
        <mxCell id="GXygi9bpyvdl9pNc-TTs-18" value="invokes scan button" style="verticalAlign=bottom;startArrow=oval;endArrow=block;startSize=8;shadow=0;strokeWidth=1;" edge="1" parent="1">
          <mxGeometry relative="1" as="geometry">
            <mxPoint x="90" y="260" as="sourcePoint" />
            <mxPoint x="370" y="260" as="targetPoint" />
            <Array as="points">
              <mxPoint x="250" y="260" />
            </Array>
          </mxGeometry>
        </mxCell>
        <mxCell id="GXygi9bpyvdl9pNc-TTs-24" value="call API for QR Code data" style="html=1;verticalAlign=bottom;endArrow=block;exitX=1;exitY=0.444;exitDx=0;exitDy=0;exitPerimeter=0;" edge="1" parent="1" source="GXygi9bpyvdl9pNc-TTs-19" target="3nuBFxr9cyL0pnOWT2aG-5">
          <mxGeometry width="80" relative="1" as="geometry">
            <mxPoint x="380" y="300" as="sourcePoint" />
            <mxPoint x="640" y="320" as="targetPoint" />
          </mxGeometry>
        </mxCell>
        <mxCell id="GXygi9bpyvdl9pNc-TTs-27" value="return scanned results" style="verticalAlign=bottom;endArrow=block;shadow=0;strokeWidth=1;" edge="1" parent="1" source="3nuBFxr9cyL0pnOWT2aG-6">
          <mxGeometry relative="1" as="geometry">
            <mxPoint x="645" y="200" as="sourcePoint" />
            <mxPoint x="380" y="200" as="targetPoint" />
            <Array as="points">
              <mxPoint x="530" y="200" />
            </Array>
          </mxGeometry>
        </mxCell>
        <mxCell id="GXygi9bpyvdl9pNc-TTs-28" value="return data associated with QR Code" style="verticalAlign=bottom;endArrow=block;shadow=0;strokeWidth=1;exitX=-0.1;exitY=0.79;exitDx=0;exitDy=0;exitPerimeter=0;entryX=1;entryY=0.867;entryDx=0;entryDy=0;entryPerimeter=0;" edge="1" parent="1" source="GXygi9bpyvdl9pNc-TTs-25" target="GXygi9bpyvdl9pNc-TTs-19">
          <mxGeometry relative="1" as="geometry">
            <mxPoint x="640" y="375" as="sourcePoint" />
            <mxPoint x="440" y="360" as="targetPoint" />
            <Array as="points">
              <mxPoint x="560" y="380" />
            </Array>
          </mxGeometry>
        </mxCell>
        <mxCell id="GXygi9bpyvdl9pNc-TTs-29" value="" style="html=1;points=[];perimeter=orthogonalPerimeter;" vertex="1" parent="1">
          <mxGeometry x="645" y="420" width="10" height="50" as="geometry" />
        </mxCell>
        <mxCell id="GXygi9bpyvdl9pNc-TTs-36" value="Error: could not find any data /  all other error case" style="verticalAlign=bottom;endArrow=block;shadow=0;strokeWidth=1;entryX=0.9;entryY=0.32;entryDx=0;entryDy=0;entryPerimeter=0;" edge="1" parent="1" target="GXygi9bpyvdl9pNc-TTs-30">
          <mxGeometry relative="1" as="geometry">
            <mxPoint x="640" y="436" as="sourcePoint" />
            <mxPoint x="390" y="390.04999999999995" as="targetPoint" />
            <Array as="points">
              <mxPoint x="570" y="436" />
            </Array>
          </mxGeometry>
        </mxCell>
        <mxCell id="GXygi9bpyvdl9pNc-TTs-39" value="result  screen with approp. data" style="verticalAlign=bottom;endArrow=block;shadow=0;strokeWidth=1;exitX=-0.3;exitY=0.72;exitDx=0;exitDy=0;exitPerimeter=0;" edge="1" parent="1">
          <mxGeometry relative="1" as="geometry">
            <mxPoint x="367" y="380" as="sourcePoint" />
            <mxPoint x="90" y="381" as="targetPoint" />
          </mxGeometry>
        </mxCell>
        <mxCell id="GXygi9bpyvdl9pNc-TTs-40" value="Scan animation" style="html=1;verticalAlign=bottom;endArrow=open;dashed=1;endSize=8;entryX=0.9;entryY=0.4;entryDx=0;entryDy=0;entryPerimeter=0;exitX=-0.4;exitY=0.4;exitDx=0;exitDy=0;exitPerimeter=0;" edge="1" parent="1" source="GXygi9bpyvdl9pNc-TTs-19" target="GXygi9bpyvdl9pNc-TTs-16">
          <mxGeometry relative="1" as="geometry">
            <mxPoint x="300" y="310" as="sourcePoint" />
            <mxPoint x="220" y="310" as="targetPoint" />
          </mxGeometry>
        </mxCell>
        <mxCell id="GXygi9bpyvdl9pNc-TTs-42" value="display &#39;QR Code saved for later&#39; message" style="verticalAlign=bottom;endArrow=block;shadow=0;strokeWidth=1;exitX=-0.3;exitY=0.72;exitDx=0;exitDy=0;exitPerimeter=0;" edge="1" parent="1">
          <mxGeometry relative="1" as="geometry">
            <mxPoint x="367" y="560" as="sourcePoint" />
            <mxPoint x="90" y="561" as="targetPoint" />
          </mxGeometry>
        </mxCell>
        <mxCell id="GXygi9bpyvdl9pNc-TTs-47" value="&lt;b&gt;Generic QR Code Scanner Sequence Diagram&lt;/b&gt;&lt;br style=&quot;font-size: 10px&quot;&gt;&lt;font style=&quot;font-size: 11px&quot; color=&quot;#616161&quot;&gt;&lt;b&gt;Suhas Shetty | 17 October 2020&lt;/b&gt;&lt;/font&gt;" style="text;html=1;strokeColor=none;fillColor=none;align=left;verticalAlign=middle;whiteSpace=wrap;rounded=0;fontSize=14;" vertex="1" parent="1">
          <mxGeometry x="60" y="20" width="350" height="50" as="geometry" />
        </mxCell>
      </root>
    </mxGraphModel>
  </diagram>
</mxfile>
